<?xml version="1.0" standalone="no"?>
<!DOCTYPE svg PUBLIC "-//W3C//DTD SVG 20010904//EN"
 "http://www.w3.org/TR/2001/REC-SVG-20010904/DTD/svg10.dtd">
<svg version="1.0" xmlns="http://www.w3.org/2000/svg"
 width="512.000000pt" height="512.000000pt" viewBox="0 0 512.000000 512.000000"
 preserveAspectRatio="xMidYMid meet">
<metadata>
Created by potrace 1.14, written by Peter Selinger 2001-2017
</metadata>
<g transform="translate(0.000000,512.000000) scale(0.100000,-0.100000)"
fill="#000000" stroke="none">
<path d="M2443 5002 c-33 -2 -56 -9 -65 -19 -11 -14 -11 -16 1 -8 11 6 12 5 5
-6 -13 -21 -14 -39 -2 -39 6 0 5 -7 -3 -16 -10 -13 -10 -17 0 -24 8 -5 10 -13
5 -21 -10 -18 -12 -79 -2 -85 5 -3 6 -10 2 -15 -11 -19 -12 -79 -1 -79 8 0 8
-3 -1 -9 -34 -21 21 -28 208 -27 l195 1 1 171 c1 166 0 170 -20 172 -52 4
-276 7 -323 4z"/>
<path d="M2507 4584 c-1 -1 -36 -5 -77 -8 -80 -6 -112 -11 -199 -30 -79 -17
-177 -68 -166 -86 3 -6 2 -10 -3 -10 -5 0 -9 -43 -9 -95 0 -52 -3 -98 -7 -102
-4 -4 -21 -8 -39 -9 -18 -1 -36 -2 -42 -4 -27 -7 -32 3 -31 63 l0 62 -34 -3
c-19 -2 -49 -12 -66 -23 -33 -20 -81 -77 -76 -91 1 -4 -2 -8 -8 -8 -5 0 -10
-7 -10 -15 0 -10 -10 -15 -27 -16 -16 0 -39 -2 -53 -5 -36 -6 -122 -23 -146
-28 -12 -2 -38 -7 -59 -10 -20 -4 -40 -8 -44 -11 -4 -2 -18 -6 -32 -9 -76 -16
-122 -29 -237 -66 -155 -50 -380 -150 -390 -172 -2 -5 -10 -8 -18 -8 -8 0 -14
-5 -14 -12 0 -6 -3 -9 -6 -5 -5 5 -29 -9 -89 -56 -88 -67 -210 -194 -210 -219
0 -5 -9 -16 -19 -24 -11 -8 -16 -14 -12 -14 5 0 3 -7 -4 -15 -7 -8 -9 -15 -5
-15 5 0 1 -8 -8 -18 -10 -10 -14 -22 -10 -25 3 -4 1 -7 -4 -7 -6 0 -10 -8 -8
-17 1 -10 -2 -23 -7 -30 -5 -7 -7 -17 -4 -22 4 -5 2 -12 -2 -15 -5 -3 -8 -18
-7 -33 1 -15 -2 -34 -8 -40 -5 -7 -6 -13 -1 -13 5 0 10 -25 11 -56 1 -32 5
-64 9 -73 4 -9 8 -23 10 -31 2 -8 8 -16 14 -18 5 -2 8 -8 4 -13 -11 -18 79
-127 163 -199 22 -19 82 -60 88 -60 2 0 26 -13 52 -28 70 -41 309 -133 409
-157 10 -3 80 -21 154 -40 74 -19 150 -38 169 -41 39 -6 49 -9 111 -22 25 -6
67 -13 94 -17 27 -3 52 -8 55 -9 3 -2 29 -7 56 -11 28 -4 61 -9 75 -12 14 -2
36 -6 50 -8 148 -21 186 -29 195 -36 5 -6 4 -9 -4 -9 -7 0 -9 -5 -5 -11 9 -14
11 -119 2 -119 -4 0 -3 -13 2 -30 5 -16 5 -30 2 -30 -7 0 -8 -49 -2 -75 1 -5
1 -12 0 -15 -7 -18 -3 -70 5 -70 6 0 3 -5 -5 -10 -13 -9 -13 -10 0 -10 11 -1
10 -4 -4 -15 -12 -9 -15 -15 -7 -15 9 0 12 -13 9 -45 -3 -24 -1 -48 4 -53 6
-6 3 -16 -7 -26 -9 -9 -12 -16 -7 -16 5 0 9 -14 10 -30 0 -17 -5 -30 -11 -30
-8 0 -8 -3 -2 -8 16 -11 18 -52 3 -52 -8 0 -9 -3 -3 -8 14 -10 17 -114 3 -106
-7 4 -8 2 -4 -4 12 -20 15 -52 5 -52 -6 0 -6 -7 -2 -17 10 -23 10 -84 0 -100
-5 -7 -4 -13 2 -13 6 0 8 -7 4 -15 -5 -14 52 -16 526 -14 480 2 531 3 532 18
0 9 2 24 4 33 2 10 -1 20 -6 23 -4 3 -5 16 0 28 9 25 8 68 -3 85 -4 7 -3 12 1
12 13 0 11 114 -2 122 -7 5 -7 8 0 8 7 0 11 39 10 108 0 60 4 110 10 114 7 5
7 8 0 8 -6 0 -8 47 -5 131 3 71 1 134 -4 139 -11 11 24 21 54 14 14 -3 39 -7
55 -9 29 -3 151 -28 285 -58 198 -45 471 -159 578 -241 30 -22 64 -47 76 -53
11 -7 18 -13 15 -13 -4 0 9 -16 27 -36 19 -19 34 -42 34 -50 0 -8 5 -12 10 -9
6 3 10 0 10 -9 0 -8 9 -35 20 -60 13 -30 16 -48 8 -52 -7 -4 -6 -9 3 -15 12
-7 12 -12 1 -30 -8 -11 -9 -18 -3 -14 15 9 14 -8 -1 -23 -9 -9 -9 -12 0 -12 9
0 10 -5 3 -18 -5 -9 -9 -20 -10 -24 -1 -8 -2 -12 -6 -25 -14 -52 -19 -63 -27
-63 -5 0 -6 -4 -3 -10 3 -5 1 -10 -6 -10 -7 0 -9 -3 -6 -7 4 -3 2 -12 -4 -20
-6 -7 -9 -13 -5 -13 12 0 -111 -131 -155 -165 -81 -62 -220 -137 -314 -170
-27 -9 -59 -21 -70 -26 -17 -7 -67 -21 -125 -35 -8 -2 -42 -10 -76 -18 -34 -8
-73 -17 -87 -20 -15 -2 -30 -7 -34 -9 -5 -3 -37 -8 -73 -12 -36 -4 -72 -8 -80
-10 -8 -2 -42 -6 -75 -9 -189 -20 -192 -19 -170 23 8 16 11 31 8 35 -4 3 -1 6
5 6 7 0 11 3 10 7 -4 13 26 103 34 103 4 0 5 6 2 14 -3 8 -1 17 5 21 6 3 11
17 11 31 0 17 4 23 13 18 6 -4 9 -4 5 0 -7 8 19 93 35 114 6 8 5 12 -4 12 -8
0 -5 6 7 14 10 8 15 18 11 23 -5 4 -110 8 -233 8 -195 1 -224 -1 -225 -15 -3
-57 0 -140 6 -151 5 -7 4 -10 -2 -6 -6 4 -10 -6 -9 -23 1 -17 4 -30 8 -30 4 0
3 -11 -2 -24 -5 -15 -5 -27 3 -35 8 -8 8 -11 -1 -11 -8 0 -9 -7 -3 -23 5 -13
6 -30 1 -37 -5 -7 -4 -24 1 -37 6 -16 6 -22 -1 -18 -7 4 -8 -3 -4 -20 l7 -26
-69 2 c-77 2 -88 5 -77 22 12 18 10 101 -2 109 -7 5 -7 8 1 8 12 0 12 59 0 79
-7 11 -6 12 5 6 12 -8 12 -6 0 8 -7 9 -9 17 -4 17 12 0 11 163 -2 172 -6 5 -6
8 1 8 6 0 11 6 11 14 0 12 -40 14 -236 15 -130 1 -231 -2 -226 -7 6 -4 10 -17
9 -29 -1 -12 3 -20 7 -17 8 4 14 -25 10 -49 0 -4 4 -7 9 -7 6 0 10 -11 10 -25
0 -14 5 -25 12 -25 6 0 8 -3 5 -7 -4 -3 -2 -12 3 -19 6 -6 10 -16 8 -20 -1 -5
3 -18 9 -29 6 -11 12 -23 12 -27 8 -47 15 -68 24 -68 6 0 7 -3 4 -7 -4 -3 -1
-13 6 -21 10 -13 9 -14 -3 -7 -11 6 -11 4 2 -11 9 -10 17 -22 18 -26 0 -4 3
-15 7 -23 3 -9 3 -18 0 -22 -10 -9 -141 -4 -307 13 -36 3 -78 7 -95 9 -45 4
-128 16 -145 20 -8 2 -37 7 -65 11 -27 3 -53 8 -58 11 -4 2 -20 6 -35 9 -63
11 -204 49 -296 80 -104 35 -366 161 -366 176 0 4 -5 8 -12 8 -15 0 -188 131
-188 142 0 5 -5 6 -10 3 -6 -3 -10 2 -10 11 0 10 -3 15 -6 12 -3 -3 -22 11
-42 32 -62 63 -112 119 -112 125 0 3 -9 15 -20 27 -11 12 -20 28 -20 35 0 7
-8 13 -17 13 -9 0 -13 3 -10 6 4 4 -2 19 -12 33 -10 14 -21 34 -24 44 -4 9
-11 17 -17 17 -6 0 -8 5 -4 11 3 6 3 14 -2 18 -5 3 -19 27 -31 52 -21 44 -22
45 -65 43 -23 -1 -48 -2 -53 -3 -10 -1 -15 -960 -5 -962 3 -1 32 -2 65 -4 50
-2 66 2 98 23 20 13 37 28 37 32 0 18 123 43 212 43 86 0 243 -9 287 -18 31
-6 94 -16 136 -21 22 -2 52 -7 68 -9 15 -3 42 -7 60 -10 17 -3 43 -8 57 -10
14 -3 43 -7 65 -10 22 -2 51 -7 65 -10 14 -3 43 -7 65 -10 22 -2 56 -6 75 -9
19 -3 60 -8 90 -10 30 -3 71 -7 90 -10 68 -10 426 -33 553 -35 26 -1 37 -5 37
-16 0 -8 4 -15 8 -15 4 0 9 -12 10 -26 1 -15 6 -32 10 -38 5 -6 15 -31 22 -56
7 -25 17 -49 21 -55 4 -5 7 -14 7 -18 0 -4 4 -20 10 -35 6 -15 13 -36 18 -47
4 -11 9 -29 11 -40 2 -10 9 -23 16 -27 9 -6 8 -8 -3 -8 -12 -1 -11 -3 3 -11 9
-6 15 -14 12 -19 -3 -5 -1 -17 4 -27 9 -18 17 -40 20 -56 0 -4 7 -20 16 -36
11 -23 12 -31 2 -34 -8 -4 -6 -6 4 -6 9 -1 16 -7 16 -14 0 -22 37 -121 48
-129 6 -5 4 -8 -5 -8 -12 0 -12 -2 -2 -9 8 -4 13 -12 12 -17 -1 -5 3 -9 10
-11 6 -1 7 0 0 4 -5 2 -7 10 -3 16 10 16 10 96 0 90 -5 -3 -4 4 2 15 7 14 8
23 1 27 -6 4 -7 13 -2 23 10 20 9 62 -1 79 -4 6 -4 14 1 17 10 6 8 68 -2 84
-4 7 -3 12 1 12 11 0 10 70 0 87 -5 7 -4 13 1 13 5 0 8 17 6 38 -1 20 -3 37
-4 37 -5 0 -5 57 0 60 3 2 5 37 5 79 l-1 75 69 -1 c61 -1 68 -3 64 -20 -3 -10
0 -18 5 -18 7 0 7 -4 0 -12 -15 -19 -15 -30 -2 -38 8 -5 9 -13 4 -21 -12 -19
-14 -39 -4 -39 5 0 5 -13 0 -30 -5 -16 -5 -30 -1 -30 9 0 7 -42 -3 -58 -4 -7
-2 -12 5 -12 8 0 8 -4 1 -13 -15 -18 -15 -29 -2 -37 8 -5 9 -13 4 -21 -11 -18
-14 -39 -6 -39 9 0 7 -68 -1 -77 -4 -3 -2 -12 4 -20 9 -10 8 -13 -2 -13 -11 0
-11 -2 1 -10 11 -7 12 -12 3 -21 -7 -7 -9 -19 -3 -34 4 -12 5 -27 1 -34 -4 -6
-5 -32 -1 -56 4 -26 3 -48 -4 -55 -7 -7 -6 -10 2 -10 6 0 9 -6 6 -14 -3 -8 1
-17 8 -22 7 -4 10 -4 6 0 -3 4 0 23 8 42 8 19 11 34 8 34 -4 0 -1 6 5 13 6 8
8 17 4 20 -3 4 -1 7 6 7 7 0 10 4 6 9 -3 5 1 16 9 24 8 8 13 17 11 19 -3 2 4
27 14 56 10 28 16 53 13 56 -3 3 1 6 8 6 7 0 10 3 7 7 -4 3 -2 12 5 20 6 8 12
24 14 36 4 36 16 67 24 62 5 -3 6 4 3 15 -3 12 0 20 6 20 7 0 9 4 6 10 -3 5 0
22 8 37 8 15 12 34 10 40 -3 7 2 16 11 19 8 3 12 12 9 20 -3 8 0 14 7 14 6 0
8 5 5 10 -4 6 -2 16 3 23 6 7 11 15 11 20 2 23 16 65 28 84 8 12 13 25 11 29
-4 9 12 11 127 18 148 9 288 25 415 46 30 5 71 12 90 15 19 3 42 8 50 10 8 2
31 7 50 10 19 3 64 13 100 21 36 9 73 17 82 19 81 17 326 94 385 121 18 8 51
21 74 29 55 20 173 78 177 87 2 5 8 8 14 8 16 0 124 67 203 126 104 77 245
227 245 262 0 6 3 12 8 12 4 0 13 14 21 30 36 83 48 132 49 198 0 39 3 76 6
81 3 5 0 12 -6 14 -10 4 -10 6 0 6 7 1 11 5 8 9 -3 5 -6 27 -7 50 -2 23 -7 42
-11 42 -4 0 -8 9 -8 19 0 11 -4 23 -10 26 -5 3 -10 15 -10 26 0 10 -4 19 -10
19 -5 0 -10 7 -10 15 0 8 -4 15 -10 15 -5 0 -10 5 -10 11 0 35 -199 184 -335
252 -171 85 -490 183 -693 213 -20 3 -44 7 -52 9 -8 3 -33 7 -55 10 -22 3 -62
10 -90 15 -27 5 -72 12 -100 16 -27 4 -57 9 -65 10 -8 2 -35 6 -60 9 -25 3
-70 9 -100 15 -30 5 -75 12 -100 15 -25 3 -72 10 -105 16 l-60 10 -1 54 c-1
33 2 52 8 49 6 -4 4 4 -3 17 -7 13 -12 24 -12 24 0 0 5 10 11 22 7 12 8 24 4
27 -10 6 -9 57 1 74 5 6 4 12 -1 12 -5 0 -7 12 -5 28 8 61 9 82 1 82 -5 0 -4
9 2 20 7 13 7 20 1 20 -7 0 -7 9 -1 25 6 16 6 25 0 25 -6 0 -6 10 0 26 13 32
13 37 -1 28 -7 -4 -7 1 1 15 8 15 8 26 1 34 -5 7 -7 18 -3 24 4 6 7 92 7 191
0 99 3 178 7 176 4 -3 5 3 1 12 -10 26 -10 117 0 138 5 10 5 16 0 13 -5 -3 -8
14 -8 39 0 24 2 44 5 44 3 0 4 18 2 40 -4 34 -1 40 15 40 11 0 23 -3 27 -7 4
-5 11 -8 14 -8 87 -6 506 -158 532 -193 3 -4 16 -12 30 -19 65 -28 280 -200
280 -223 0 -6 8 -10 17 -10 9 0 14 -3 10 -6 -3 -4 9 -23 28 -43 19 -20 38 -44
41 -53 3 -10 9 -18 13 -18 4 0 18 -22 32 -50 13 -27 27 -50 32 -50 4 0 7 -9 7
-20 0 -11 5 -20 11 -20 5 0 8 -4 5 -8 -12 -20 16 -36 68 -39 31 -1 56 1 57 5
5 52 2 199 -5 195 -5 -4 -6 0 -1 7 12 19 12 119 1 113 -5 -4 -5 0 -1 8 13 19
12 109 0 109 -7 0 -7 3 0 8 13 9 15 83 2 75 -6 -4 -7 -1 -2 7 12 20 12 119 0
112 -7 -4 -7 -1 0 9 9 12 10 49 6 146 -1 21 -5 23 -68 21 -38 -1 -70 -4 -73
-8 -3 -3 -27 -20 -53 -38 -57 -38 -117 -49 -252 -46 -100 2 -124 4 -225 24
-30 6 -66 13 -80 15 -48 9 -72 14 -88 19 -9 3 -30 8 -47 11 -16 2 -41 7 -55
10 -14 3 -52 11 -85 16 -33 6 -67 12 -75 14 -8 2 -39 6 -68 10 l-53 7 3 77 c1
42 -1 82 -6 89 -4 6 -3 12 3 12 13 0 3 57 -15 87 -29 47 -134 81 -301 99 -62
6 -281 13 -286 8z m-455 -413 c-8 -4 -12 -12 -10 -17 1 -5 -15 -12 -37 -16
-62 -11 -71 -9 -72 11 -2 20 7 23 97 28 22 2 30 -1 22 -6z m-348 -60 c-3 -14
-6 -78 -8 -142 -2 -64 -7 -122 -11 -129 -5 -9 -4 -11 4 -6 8 6 10 1 6 -16 -10
-41 -10 -168 0 -169 6 0 4 -3 -3 -6 -6 -2 -9 -10 -5 -16 4 -7 8 -38 9 -70 0
-31 4 -60 7 -64 4 -3 1 -13 -6 -21 -9 -13 -9 -14 1 -8 9 5 12 -4 13 -33 1 -23
1 -53 2 -68 0 -16 5 -31 11 -35 6 -4 5 -12 -3 -22 -8 -9 -9 -16 -4 -16 5 0 9
-10 10 -22 4 -95 9 -138 15 -138 11 0 5 -23 -7 -32 -5 -4 36 -7 92 -7 68 0
103 4 105 12 3 7 4 157 4 334 l-1 323 30 5 c74 13 80 12 81 -17 1 -16 -4 -28
-10 -28 -7 0 -7 -3 -1 -8 14 -10 17 -74 3 -66 -7 4 -7 0 -1 -12 11 -22 10 -64
-2 -84 -5 -8 -4 -11 3 -6 12 7 11 -32 -2 -52 -4 -7 -3 -18 3 -25 6 -8 6 -18 1
-27 -5 -9 -5 -19 2 -27 7 -8 7 -18 1 -25 -8 -11 -10 -33 -3 -40 7 -10 4 -58
-5 -58 -5 0 -3 -5 5 -10 13 -8 13 -10 1 -10 -12 0 -12 -3 -3 -12 8 -8 9 -15 1
-25 -8 -9 -8 -13 0 -13 7 0 8 -8 1 -25 -7 -17 -6 -25 1 -25 8 0 7 -5 -1 -15
-9 -11 -9 -15 -1 -15 9 0 9 -5 0 -21 -8 -15 -8 -19 0 -15 8 5 8 0 1 -18 -5
-14 -5 -28 -1 -31 5 -3 8 -13 6 -23 -2 -9 -4 -23 -4 -30 -1 -8 -12 -11 -33 -8
-18 3 -51 8 -73 11 -22 3 -51 7 -65 10 -14 3 -38 8 -55 11 -196 35 -333 69
-485 120 -118 40 -260 103 -260 116 0 4 -5 8 -11 8 -16 0 -91 54 -130 93 -40
40 -80 113 -82 151 -1 14 -6 26 -10 26 -4 0 -3 8 2 18 7 13 7 22 -1 30 -8 8
-8 15 2 27 10 12 10 15 -1 15 -9 0 -10 3 -4 8 6 4 12 18 14 32 1 14 8 28 15
32 6 4 7 8 2 8 -5 0 -3 7 4 15 7 8 9 15 4 15 -5 0 0 7 11 16 11 8 19 18 18 22
-3 7 57 72 90 99 39 32 201 117 282 148 94 37 373 110 422 111 8 1 11 -8 7
-25z"/>
</g>
</svg>
